<svg xmlns="http://www.w3.org/2000/svg" viewBox="19.77 21.67 436.07 445.58">
  <g transform="matrix(0.06109, 0, 0, -0.064042, -57.74978, 492.799934)" fill="#000000" stroke="none" style="">
    <path d="M4635 7354 c-609 -47 -1122 -199 -1600 -473 -898 -517 -1510 -1369 -1705 -2376 -56 -286 -53 -196 -57 -2228 l-4 -1878 1923 4 c2090 3 1989 0 2303 58 1188 218 2172 995 2640 2085 57 130 145 394 175 519 211 893 77 1784 -387 2565 -349 588 -887 1076 -1518 1376 -367 174 -742 281 -1155 329 -130 15 -512 27 -615 19z m605 -528 c664 -94 1236 -361 1713 -798 442 -405 766 -974 886 -1554 47 -226 55 -318 55 -594 0 -276 -8 -368 -55 -594 -156 -754 -621 -1429 -1289 -1868 -322 -212 -723 -375 -1099 -448 -290 -57 -179 -53 -1994 -57 l-1678 -4 4 1628 c4 1768 0 1656 58 1937 84 404 270 813 521 1148 290 385 642 678 1078 897 373 186 707 279 1175 325 88 9 525 -4 625 -18z" style="fill: rgb(168, 168, 168);"/>
    <path d="M5805 5566 c-74 -23 -99 -44 -280 -225 l-180 -181 373 -372 372 -373 201 200 c110 110 210 218 222 240 29 53 30 163 2 220 -23 49 -370 403 -440 449 -81 54 -183 69 -270 42z" style="fill: rgb(168, 168, 168);"/>
    <path d="M4200 4015 l-944 -944 329 -333 c181 -183 348 -353 372 -378 l43 -45 945 945 c520 520 945 949 945 955 0 10 -730 745 -740 745 -3 0 -430 -425 -950 -945z" style="fill: rgb(168, 168, 168);"/>
    <path d="M3032 2774 c-11 -49 -55 -245 -97 -437 -85 -383 -86 -392 -23 -418 32 -13 44 -11 656 139 l232 57 -374 374 -374 374 -20 -89z" style="fill: rgb(168, 168, 168);"/>
  </g>
</svg>