<?xml version="1.0" encoding="utf-8"?>
<svg viewBox="0 0 500 500" xmlns="http://www.w3.org/2000/svg">
  <g transform="matrix(0.122309, 0, 0, -0.123967, 0.812701, 502.222023)" fill="#000000" stroke="none" style="">
    <path d="M1890 4050 c-498 -40 -942 -243 -1288 -589 -314 -313 -500 -672 -579 -1123 -14 -81 -17 -231 -20 -1206 l-4 -1113 1123 4 c1236 3 1195 1 1444 67 364 96 662 268 931 536 285 285 471 631 554 1029 30 143 38 514 15 670 -107 725 -598 1331 -1296 1600 -249 97 -608 148 -880 125z m404 -115 c228 -30 409 -86 621 -191 735 -364 1155 -1145 1050 -1951 -112 -854 -798 -1535 -1661 -1648 -96 -13 -285 -15 -1155 -15 l-1039 0 0 1019 c0 1120 1 1136 60 1368 193 745 838 1312 1616 1417 136 19 369 19 508 1z" style="fill: rgb(194, 194, 194);"/>
    <path d="M2632 3045 c-38 -17 -242 -212 -242 -231 0 -14 425 -444 438 -444 10 0 69 57 180 173 79 83 92 101 92 130 0 82 -8 95 -144 229 -72 72 -145 136 -163 144 -41 18 -119 17 -161 -1z" style="fill: rgb(194, 194, 194);"/>
    <path d="M1690 2125 l-565 -565 220 -222 c121 -122 221 -224 222 -226 3 -6 77 52 87 68 5 8 247 252 538 542 l528 526 -37 36 c-21 20 -123 119 -226 221 -104 102 -192 185 -195 185 -4 0 -261 -254 -572 -565z" style="fill: rgb(194, 194, 194);"/>
    <path d="M966 1273 c-22 -87 -43 -176 -46 -198 -4 -22 -15 -73 -24 -114 -15 -70 -15 -74 1 -87 21 -16 46 -17 87 -5 17 6 74 20 126 31 52 12 131 33 175 46 44 13 100 28 124 34 l44 12 -219 219 c-120 120 -221 219 -224 219 -3 0 -23 -71 -44 -157z" style="fill: rgb(194, 194, 194);"/>
  </g>
</svg>