<svg xmlns="http://www.w3.org/2000/svg" version="1.1" id="svg8" viewBox="7.56 6.8 189.74 175.38">
  <defs id="defs2"/>

  <g id="layer1">
    <g style="fill:#929292;fill-opacity:1" id="g848" transform="matrix(1.2649603,0,0,1.1692063,7.5595246,6.8035723)">
      <g id="XMLID_240_" style="fill:#929292;fill-opacity:1">
	<path id="XMLID_241_" d="m 15,30 h 120 c 8.284,0 15,-6.716 15,-15 C 150,6.716 143.284,0 135,0 H 15 C 6.716,0 0,6.716 0,15 0,23.284 6.716,30 15,30 Z" style="fill:#929292;fill-opacity:1"/>

	<path id="XMLID_242_" d="M 135,60 H 15 C 6.716,60 0,66.716 0,75 0,83.284 6.716,90 15,90 h 120 c 8.284,0 15,-6.716 15,-15 0,-8.284 -6.716,-15 -15,-15 z" style="fill:#929292;fill-opacity:1"/>

	<path id="XMLID_243_" d="M 135,120 H 15 c -8.284,0 -15,6.716 -15,15 0,8.284 6.716,15 15,15 h 120 c 8.284,0 15,-6.716 15,-15 0,-8.284 -6.716,-15 -15,-15 z" style="fill:#929292;fill-opacity:1"/>
</g>
    </g>
  </g>
</svg>