<?xml version="1.0" encoding="utf-8"?>
<svg version="1.0" width="512.000000pt" height="512.000000pt" viewBox="0 0 512.000000 512.000000" preserveAspectRatio="xMidYMid meet" xmlns="http://www.w3.org/2000/svg">
  <g transform="translate(0.000000,512.000000) scale(0.100000,-0.100000)" fill="#000000" stroke="none">
    <path d="M2323 5110 c-598 -58 -1146 -316 -1571 -740 -404 -404 -651 -906 -734 -1495 -19 -140 -16 -515 6 -660 43 -286 115 -522 236 -772 l78 -162 -163 -507 c-90 -280 -167 -526 -171 -547 -20 -124 99 -243 223 -223 21 4 267 81 547 171 l507 163 162 -78 c250 -121 486 -193 772 -236 145 -22 520 -25 660 -6 589 83 1087 328 1493 732 397 397 640 882 729 1460 24 161 24 539 0 700 -89 577 -330 1059 -727 1458 -394 395 -885 641 -1450 727 -125 19 -468 27 -597 15z m438 -400 c330 -33 694 -156 943 -320 445 -291 750 -681 905 -1156 119 -364 141 -711 70 -1089 -45 -235 -167 -544 -289 -729 -288 -439 -675 -745 -1142 -901 -607 -203 -1226 -135 -1808 197 -112 64 -114 63 -555 -80 -203 -66 -371 -120 -372 -119 -1 1 53 169 119 372 149 457 147 437 61 590 -184 327 -274 640 -290 1010 -40 945 576 1827 1483 2124 293 96 586 129 875 101z" style="fill: rgb(66, 66, 66);"/>
    <path d="M1472 2793 c-23 -8 -62 -34 -86 -59 -100 -100 -100 -248 0 -348 100 -100 248 -100 348 0 188 187 -11 496 -262 407z" style="fill: rgb(66, 66, 66);"/>
    <path d="M2472 2793 c-23 -8 -62 -34 -86 -59 -100 -100 -100 -248 0 -348 100 -100 248 -100 348 0 188 187 -11 496 -262 407z" style="fill: rgb(66, 66, 66);"/>
    <path d="M3472 2793 c-23 -8 -62 -34 -86 -59 -100 -100 -100 -248 0 -348 100 -100 248 -100 348 0 188 187 -11 496 -262 407z" style="fill: rgb(66, 66, 66);"/>
  </g>
</svg>